<svg width="20" height="20" viewBox="0 0 20 20" fill="none" xmlns="http://www.w3.org/2000/svg">
<path d="M14 19H4C2.34315 19 1 17.6569 1 16V4C1 2.34315 2.34315 1 4 1H10M14 19V16C14 14.8954 14.8954 14 16 14H19M14 19H14.7574C15.553 19 16.3161 18.6839 16.8787 18.1213L18.1213 16.8787C18.6839 16.3161 19 15.553 19 14.7574V14M19 14V10M7 10.3136V12.8C7 12.9105 7.08954 13 7.2 13H9.68639C9.73943 13 9.7903 12.9789 9.82781 12.9414L18.8586 3.91065C18.9367 3.83255 18.9367 3.70591 18.8586 3.62781L16.3722 1.14142C16.2941 1.06332 16.1675 1.06332 16.0893 1.14142L7.05858 10.1722C7.02107 10.2097 7 10.2606 7 10.3136Z" stroke="#9B9C9E" stroke-width="1.5" stroke-linecap="round" stroke-linejoin="round"/>
</svg>
