<svg width="20" height="20" viewBox="0 0 20 20" fill="none" xmlns="http://www.w3.org/2000/svg">
<path fill-rule="evenodd" clip-rule="evenodd" d="M4.20711 0.87868C4.76972 0.31607 5.53278 0 6.32843 0H13.6716C14.4672 0 15.2303 0.31607 15.7929 0.878679L19.1213 4.20711C19.6839 4.76972 20 5.53278 20 6.32843V13.6716C20 14.4672 19.6839 15.2303 19.1213 15.7929L15.7929 19.1213C15.2303 19.6839 14.4672 20 13.6716 20H6.32843C5.53278 20 4.76972 19.6839 4.20711 19.1213L0.878679 15.7929C0.316071 15.2303 0 14.4672 0 13.6716V6.32843C0 5.53278 0.31607 4.76972 0.878679 4.20711L4.20711 0.87868ZM11 6C11 5.44772 10.5523 5 10 5C9.44771 5 9 5.44772 9 6V10C9 10.5523 9.44771 11 10 11C10.5523 11 11 10.5523 11 10V6ZM10 13C9.44771 13 9 13.4477 9 14C9 14.5523 9.44771 15 10 15H10.01C10.5623 15 11.01 14.5523 11.01 14C11.01 13.4477 10.5623 13 10.01 13H10Z" fill="#D0302F"/>
</svg>
