<svg width="20" height="20" viewBox="0 0 20 20" fill="none" xmlns="http://www.w3.org/2000/svg">
<path d="M1.99997 6L8.58579 12.5858C9.36684 13.3669 10.6332 13.3669 11.4142 12.5858L18 6.00003M4 19H16C17.6569 19 19 17.6569 19 16V7.00003C19 6.6031 18.8844 6.23317 18.685 5.9221C18.5301 5.68059 18.2863 5.51611 18.0344 5.37882L11.4357 1.78244C10.5407 1.29468 9.45931 1.29468 8.56435 1.78244L1.96559 5.37882C1.71369 5.51611 1.46988 5.68059 1.31505 5.9221C1.11563 6.23317 1 6.6031 1 7.00003V16C1 17.6569 2.34315 19 4 19Z" stroke="#B6F09C" stroke-width="1.5" stroke-linecap="round"/>
</svg>
