<svg width="14" height="20" viewBox="0 0 14 20" fill="none" xmlns="http://www.w3.org/2000/svg">
<path d="M7 1H4C2.34315 1 1 2.34315 1 4C1 5.65685 2.34315 7 4 7M7 1V7M7 1H10C11.6569 1 13 2.34315 13 4C13 5.65685 11.6569 7 10 7M7 7H4M7 7V13M7 7H10M4 7C2.34315 7 1 8.34315 1 10C1 11.6569 2.34315 13 4 13M7 13H4M7 13V16C7 17.6569 5.65685 19 4 19C2.34315 19 1 17.6569 1 16C1 14.3431 2.34315 13 4 13M10 7C8.34315 7 7 8.34315 7 10C7 11.6569 8.34315 13 10 13C11.6569 13 13 11.6569 13 10C13 8.34315 11.6569 7 10 7Z" stroke="#9B9C9E" stroke-width="1.5" stroke-linecap="round"/>
</svg>
