<svg width="20" height="20" viewBox="0 0 20 20" fill="none" xmlns="http://www.w3.org/2000/svg">
<path d="M8.50019 8.5L10.586 6.41421C11.367 5.63316 12.6334 5.63317 13.4144 6.41421L13.586 6.58579C14.367 7.36684 14.367 8.63316 13.586 9.41421L11.5002 11.5M8.50019 8.5L1.4144 15.5858C0.633351 16.3668 0.633351 17.6332 1.4144 18.4142L1.58597 18.5858C2.36702 19.3668 3.63335 19.3668 4.4144 18.5858L11.5002 11.5M8.50019 8.5L11.5002 11.5M6.29953 6.35722L4.00019 5.38534M9.34008 3.31499L8.41054 1M13.6457 3.31499L14.5752 1M16.6847 6.35353L18.9895 5.3949M16.6847 10.6465L19.0002 11.5794M13.6421 13.6865L14.5753 16" stroke="#9B9C9E" stroke-width="1.5" stroke-linecap="round" stroke-linejoin="round"/>
</svg>
