<svg width="16" height="18" viewBox="0 0 16 18" fill="none" xmlns="http://www.w3.org/2000/svg">
<path d="M10.0228 12.7136C9.79679 13.0894 9.66683 13.5295 9.66683 14C9.66683 15.3807 10.7861 16.5 12.1668 16.5C13.5475 16.5 14.6668 15.3807 14.6668 14C14.6668 12.6193 13.5475 11.5 12.1668 11.5C11.2566 11.5 10.46 11.9865 10.0228 12.7136ZM10.0228 12.7136L5.97755 10.2864M5.97755 10.2864C6.20353 9.9106 6.3335 9.47048 6.3335 9C6.3335 8.52952 6.20353 8.0894 5.97755 7.71357M5.97755 10.2864C5.54034 11.0135 4.74373 11.5 3.8335 11.5C2.45278 11.5 1.3335 10.3807 1.3335 9C1.3335 7.61929 2.45278 6.5 3.8335 6.5C4.74373 6.5 5.54034 6.98645 5.97755 7.71357M5.97755 7.71357L10.0228 5.28643M10.0228 5.28643C10.46 6.01355 11.2566 6.5 12.1668 6.5C13.5475 6.5 14.6668 5.38071 14.6668 4C14.6668 2.61929 13.5475 1.5 12.1668 1.5C10.7861 1.5 9.66683 2.61929 9.66683 4C9.66683 4.47048 9.79679 4.9106 10.0228 5.28643Z" stroke="#686B6E" stroke-width="1.5" stroke-linecap="round" stroke-linejoin="round"/>
</svg>
